<svg xmlns="http://www.w3.org/2000/svg" width="23" height="12" viewBox="0 0 23 12">
    <g transform="translate(-398 -790)">
        <rect data-name="Rectangle 3378" width="23" height="12" rx="3" transform="translate(398 790)" style="fill:#b2b2b2"/>
        <path data-name="Path 4849" d="M.659-6.442h2.575a7.439 7.439 0 0 1 1.14.064 1.676 1.676 0 0 1 .672.266 1.654 1.654 0 0 1 .494.538 1.458 1.458 0 0 1 .2.754 1.5 1.5 0 0 1-.24.83 1.511 1.511 0 0 1-.661.567 1.7 1.7 0 0 1 .905.584 1.551 1.551 0 0 1 .316.971 1.915 1.915 0 0 1-.2.855 1.722 1.722 0 0 1-.558.664 1.843 1.843 0 0 1-.872.305Q4.1-.009 2.852 0H.659zM1.96-5.37v1.49h.853q.76 0 .945-.022a.86.86 0 0 0 .525-.231.68.68 0 0 0 .191-.5.707.707 0 0 0-.165-.486.746.746 0 0 0-.49-.226q-.194-.025-1.112-.025zm0 2.562v1.723h1.2a5.884 5.884 0 0 0 .892-.04.806.806 0 0 0 .472-.257.791.791 0 0 0 .182-.547.84.84 0 0 0-.141-.492.8.8 0 0 0-.406-.294 4.419 4.419 0 0 0-1.149-.093zm5.186-3.634h1.3v3.489a7.238 7.238 0 0 0 .048 1.077 1.043 1.043 0 0 0 .4.635A1.386 1.386 0 0 0 9.751-1a1.311 1.311 0 0 0 .835-.226.894.894 0 0 0 .338-.556 7.248 7.248 0 0 0 .057-1.094v-3.566h1.3v3.384a8.7 8.7 0 0 1-.105 1.639 1.814 1.814 0 0 1-.389.809 1.965 1.965 0 0 1-.758.525 3.3 3.3 0 0 1-1.239.2A3.568 3.568 0 0 1 8.391-.1a2 2 0 0 1-.754-.554 1.775 1.775 0 0 1-.365-.714 7.824 7.824 0 0 1-.127-1.635zM15.346 0v-2.711l-2.36-3.731h1.525l1.516 2.549 1.485-2.549h1.5L16.642-2.7V0z" transform="translate(399.665 799.166)" style="fill:#fff"/>
    </g>
</svg>
