<svg xmlns="http://www.w3.org/2000/svg" width="20" height="20" viewBox="0 0 20 20">
    <path data-name="Path 3900" d="M0 0h20v20H0z" style="fill:none"/>
    <path data-name="Subtraction 9" d="M9 0a9.716 9.716 0 0 0-9 5.5A9.716 9.716 0 0 0 9 11a9.716 9.716 0 0 0 9-5.5A9.716 9.716 0 0 0 9 0zm0 9.167A3.9 3.9 0 0 1 4.909 5.5 3.9 3.9 0 0 1 9 1.833 3.9 3.9 0 0 1 13.091 5.5 3.9 3.9 0 0 1 9 9.167zM9 3.3a2.334 2.334 0 0 0-2.454 2.2A2.334 2.334 0 0 0 9 7.7a2.334 2.334 0 0 0 2.455-2.2A2.334 2.334 0 0 0 9 3.3z" transform="translate(1 4)" style="fill:#b2b2b2"/>
</svg>
